<?xml version="1.0" encoding="UTF-8" standalone="no"?>
<!DOCTYPE svg PUBLIC "-//W3C//DTD SVG 20010904//EN"
              "http://www.w3.org/TR/2001/REC-SVG-20010904/DTD/svg10.dtd">

<svg xmlns="http://www.w3.org/2000/svg"
     width="43.0556in" height="43.0556in"
     viewBox="0 0 3100 3100">
  <rect x="0" y="0" width="100%" height="100%" fill="#2a2a2a"/>
  <path id="logo"
        fill="white" stroke="white" stroke-width="1"
        d="M 665.00,1250.00
           C 665.00,1250.00 1100.00,1250.00 1100.00,1250.00
             1100.00,1250.00 1100.00,1950.00 1100.00,1950.00
             1100.00,1950.00 1200.00,1950.00 1200.00,1950.00
             1200.00,1950.00 1200.00,1250.00 1200.00,1250.00
             1200.00,1250.00 1500.00,1250.00 1500.00,1250.00
             1500.00,1250.00 1500.00,1950.00 1500.00,1950.00
             1500.00,1950.00 1600.00,1950.00 1600.00,1950.00
             1600.00,1950.00 1600.00,1250.00 1600.00,1250.00
             1600.00,1250.00 1900.00,1250.00 1900.00,1250.00
             1900.00,1250.00 1900.00,1950.00 1900.00,1950.00
             1900.00,1950.00 2000.00,1950.00 2000.00,1950.00
             2000.00,1950.00 2000.00,1250.00 2000.00,1250.00
             2000.00,1250.00 2435.00,1250.00 2435.00,1250.00
             2390.67,1290.74 2360.46,1330.22 2335.31,1385.00
             2288.26,1487.46 2288.26,1612.54 2335.31,1715.00
             2359.68,1768.07 2390.74,1809.82 2434.00,1849.07
             2467.32,1879.31 2509.24,1904.70 2551.00,1921.40
             2590.29,1937.12 2632.69,1947.19 2675.00,1949.04
             2675.00,1949.04 2686.00,1950.00 2686.00,1950.00
             2731.10,1950.52 2771.59,1946.35 2815.00,1933.28
             2934.80,1897.20 3030.39,1808.14 3074.58,1691.00
             3087.66,1656.31 3095.32,1619.83 3098.96,1583.00
             3098.96,1583.00 3098.96,1574.00 3098.96,1574.00
             3098.96,1574.00 3100.00,1562.00 3100.00,1562.00
             3100.00,1562.00 3100.00,1538.00 3100.00,1538.00
             3100.00,1538.00 3098.96,1526.00 3098.96,1526.00
             3098.96,1526.00 3098.96,1517.00 3098.96,1517.00
             3096.81,1495.79 3093.55,1474.69 3088.37,1454.00
             3052.07,1308.78 2941.22,1197.93 2796.00,1161.63
             2775.31,1156.45 2754.21,1153.19 2733.00,1151.04
             2733.00,1151.04 2724.00,1151.04 2724.00,1151.04
             2724.00,1151.04 2712.00,1150.00 2712.00,1150.00
             2712.00,1150.00 1215.00,1150.00 1215.00,1150.00
             1215.00,1150.00 662.00,1150.00 662.00,1150.00
             662.00,1150.00 478.00,1150.00 478.00,1150.00
             478.00,1150.00 386.00,1150.00 386.00,1150.00
             386.00,1150.00 376.00,1151.04 376.00,1151.04
             376.00,1151.04 367.00,1151.04 367.00,1151.04
             345.79,1153.19 324.69,1156.45 304.00,1161.63
             202.67,1186.96 115.80,1249.08 60.42,1338.00
             38.12,1373.81 21.85,1413.12 11.63,1454.00
             6.45,1474.69 3.19,1495.79 1.04,1517.00
             1.04,1517.00 1.04,1526.00 1.04,1526.00
             1.04,1526.00 0.00,1536.00 0.00,1536.00
             0.00,1536.00 0.00,1562.00 0.00,1562.00
             0.00,1562.00 0.96,1575.00 0.96,1575.00
             3.30,1628.70 18.78,1682.05 42.75,1730.00
             67.61,1779.71 102.81,1824.30 146.00,1859.39
             187.44,1893.06 233.86,1917.88 285.00,1933.28
             311.71,1941.33 339.27,1946.19 367.00,1948.96
             367.00,1948.96 376.00,1948.96 376.00,1948.96
             376.00,1948.96 386.00,1950.00 386.00,1950.00
             386.00,1950.00 412.00,1950.00 412.00,1950.00
             412.00,1950.00 425.00,1949.04 425.00,1949.04
             483.56,1946.49 541.59,1928.50 593.00,1900.69
             621.49,1885.28 655.15,1860.82 678.00,1838.00
             706.67,1809.37 731.35,1778.76 750.69,1743.00
             808.30,1636.49 816.00,1512.50 771.00,1400.00
             753.10,1355.26 725.75,1312.24 692.91,1277.00
             692.91,1277.00 665.00,1250.00 665.00,1250.00 Z
           M 384.00,1250.14
           C 384.00,1250.14 390.00,1250.14 390.00,1250.14
             427.17,1249.83 458.47,1253.16 494.00,1265.00
             537.79,1279.60 577.93,1303.70 611.00,1336.01
             662.99,1386.82 694.13,1456.80 699.09,1529.00
             699.09,1529.00 700.00,1539.00 700.00,1539.00
             700.00,1539.00 700.00,1559.00 700.00,1559.00
             700.00,1559.00 699.09,1571.00 699.09,1571.00
             694.48,1638.04 667.72,1702.39 622.08,1752.00
             596.70,1779.59 567.65,1802.04 534.00,1818.75
             487.26,1841.98 440.81,1850.60 389.00,1850.00
             389.00,1850.00 379.00,1849.09 379.00,1849.09
             353.61,1847.34 329.20,1842.73 305.00,1834.67
             272.02,1823.67 242.44,1807.97 215.00,1786.58
             103.00,1699.27 68.69,1545.20 130.26,1418.00
             166.61,1342.90 232.63,1287.69 312.00,1263.02
             327.16,1258.31 346.24,1254.25 362.00,1252.28
             362.00,1252.28 384.00,1250.14 384.00,1250.14 Z
           M 2684.00,1250.14
           C 2684.00,1250.14 2690.00,1250.14 2690.00,1250.14
             2727.17,1249.83 2758.47,1253.16 2794.00,1265.00
             2837.79,1279.60 2877.93,1303.70 2911.00,1336.01
             2962.99,1386.82 2994.13,1456.80 2999.09,1529.00
             2999.09,1529.00 3000.00,1539.00 3000.00,1539.00
             3000.00,1539.00 3000.00,1559.00 3000.00,1559.00
             3000.00,1559.00 2999.09,1571.00 2999.09,1571.00
             2994.48,1638.04 2967.72,1702.39 2922.08,1752.00
             2896.70,1779.59 2867.65,1802.04 2834.00,1818.75
             2787.26,1841.98 2740.81,1850.60 2689.00,1850.00
             2689.00,1850.00 2679.00,1849.09 2679.00,1849.09
             2653.61,1847.34 2629.20,1842.73 2605.00,1834.67
             2572.02,1823.67 2542.44,1807.97 2515.00,1786.58
             2403.00,1699.27 2368.69,1545.20 2430.26,1418.00
             2466.61,1342.90 2532.63,1287.69 2612.00,1263.02
             2627.16,1258.31 2646.24,1254.25 2662.00,1252.28
             2662.00,1252.28 2684.00,1250.14 2684.00,1250.14 Z" />
</svg>
